<svg width="1600" height="900" viewBox="0 0 1600 900" fill="none" xmlns="http://www.w3.org/2000/svg">
  <defs>
    <linearGradient id="bgPlan" x1="120" y1="90" x2="1480" y2="820" gradientUnits="userSpaceOnUse">
      <stop stop-color="#F4ECE3"/>
      <stop offset="1" stop-color="#D7C5B2"/>
    </linearGradient>
    <filter id="grainPlan" x="-20%" y="-20%" width="140%" height="140%">
      <feTurbulence type="fractalNoise" baseFrequency="0.8" numOctaves="2" stitchTiles="stitch"/>
      <feColorMatrix type="saturate" values="0"/>
      <feComponentTransfer>
        <feFuncA type="table" tableValues="0 0.06"/>
      </feComponentTransfer>
    </filter>
  </defs>

  <rect width="1600" height="900" fill="url(#bgPlan)"/>
  <rect x="140" y="90" width="1320" height="720" rx="36" fill="#FAF4ED" stroke="#DCCDBE" stroke-width="8"/>

  <rect x="260" y="190" width="720" height="500" rx="24" fill="#FDFCFB" stroke="#D3C6B7" stroke-width="6"/>
  <rect x="310" y="250" width="180" height="120" rx="12" fill="#F3B6A1"/>
  <rect x="530" y="250" width="180" height="120" rx="12" fill="#E8D995"/>
  <rect x="750" y="250" width="180" height="120" rx="12" fill="#B9D8C0"/>

  <rect x="310" y="410" width="280" height="220" rx="14" fill="#EBE0D1"/>
  <rect x="620" y="410" width="310" height="40" rx="12" fill="#D8CABA"/>
  <rect x="620" y="470" width="260" height="40" rx="12" fill="#D8CABA"/>
  <rect x="620" y="530" width="220" height="40" rx="12" fill="#D8CABA"/>

  <rect x="1080" y="250" width="240" height="380" rx="22" fill="#EFE4D7"/>
  <circle cx="1200" cy="360" r="72" fill="#D9BFA4"/>
  <rect x="1140" y="470" width="120" height="24" rx="12" fill="#C8AF93"/>

  <rect width="1600" height="900" filter="url(#grainPlan)" opacity="0.5"/>
</svg>
