<svg width="1600" height="900" viewBox="0 0 1600 900" fill="none" xmlns="http://www.w3.org/2000/svg">
  <defs>
    <linearGradient id="bgEthics" x1="100" y1="100" x2="1480" y2="820" gradientUnits="userSpaceOnUse">
      <stop stop-color="#F0EDFD"/>
      <stop offset="1" stop-color="#CBC2F0"/>
    </linearGradient>
    <linearGradient id="faceEthics" x1="540" y1="230" x2="1040" y2="590" gradientUnits="userSpaceOnUse">
      <stop stop-color="#DCD7FB"/>
      <stop offset="1" stop-color="#B7ACEE"/>
    </linearGradient>
    <filter id="grainEthics" x="-20%" y="-20%" width="140%" height="140%">
      <feTurbulence type="fractalNoise" baseFrequency="0.76" numOctaves="2" stitchTiles="stitch"/>
      <feColorMatrix type="saturate" values="0"/>
      <feComponentTransfer>
        <feFuncA type="table" tableValues="0 0.07"/>
      </feComponentTransfer>
    </filter>
  </defs>

  <rect width="1600" height="900" fill="url(#bgEthics)"/>
  <rect x="280" y="128" width="1040" height="644" rx="42" fill="#FBFAFF" stroke="#D4CFEE" stroke-width="8"/>

  <rect x="540" y="230" width="520" height="360" rx="36" fill="url(#faceEthics)"/>
  <rect x="700" y="590" width="200" height="90" rx="20" fill="#AAA0E7"/>
  <circle cx="700" cy="380" r="36" fill="#695CC7"/>
  <circle cx="900" cy="380" r="36" fill="#695CC7"/>
  <rect x="688" y="460" width="224" height="26" rx="13" fill="#7469CF"/>

  <path d="M1138 292H1272" stroke="#5C54AD" stroke-width="10"/>
  <path d="M1206 292V474" stroke="#5C54AD" stroke-width="10"/>
  <path d="M1164 474H1248" stroke="#5C54AD" stroke-width="10"/>
  <path d="M1162 334L1100 436H1224L1162 334Z" fill="#988FE1"/>
  <path d="M1244 334L1182 436H1306L1244 334Z" fill="#988FE1"/>

  <path d="M442 232V166" stroke="#766ACE" stroke-width="14" stroke-linecap="round"/>
  <circle cx="442" cy="144" r="25" fill="#766ACE"/>

  <rect width="1600" height="900" filter="url(#grainEthics)" opacity="0.52"/>
</svg>
