<svg width="1600" height="900" viewBox="0 0 1600 900" fill="none" xmlns="http://www.w3.org/2000/svg">
  <defs>
    <linearGradient id="bg-ai-overviews-optimization-protecting-clicks" x1="90" y1="80" x2="1510" y2="830" gradientUnits="userSpaceOnUse">
      <stop stop-color="#F1EEFF"/>
      <stop offset="1" stop-color="#D8CCF4"/>
    </linearGradient>
    <filter id="grain-ai-overviews-optimization-protecting-clicks" x="-20%" y="-20%" width="140%" height="140%">
      <feTurbulence type="fractalNoise" baseFrequency="0.81" numOctaves="2" stitchTiles="stitch"/>
      <feColorMatrix type="saturate" values="0"/>
      <feComponentTransfer>
        <feFuncA type="table" tableValues="0 0.06"/>
      </feComponentTransfer>
    </filter>
  </defs>

  <rect width="1600" height="900" fill="url(#bg-ai-overviews-optimization-protecting-clicks)"/>
  <rect x="170" y="120" width="1260" height="660" rx="46" fill="#FCFEFF" stroke="#CAD8EB" stroke-width="8"/>

  <rect x="247" y="237" width="460" height="420" rx="32" fill="#8F7EC8" opacity="0.24"/>
  <rect x="787" y="277" width="520" height="72" rx="16" fill="#8F7EC8" opacity="0.52"/>
  <rect x="787" y="379" width="420" height="28" rx="14" fill="#8F7EC8" opacity="0.45"/>
  <rect x="787" y="427" width="360" height="28" rx="14" fill="#8F7EC8" opacity="0.45"/>

  <circle cx="427" cy="387" r="72" fill="#4A3A82" opacity="0.52"/>
  <rect x="367" y="497" width="260" height="22" rx="11" fill="#4A3A82" opacity="0.5"/>
  <rect x="367" y="537" width="220" height="22" rx="11" fill="#4A3A82" opacity="0.5"/>

  <path d="M1007 637H1167" stroke="#4A3A82" stroke-width="10" stroke-linecap="round"/>
  <circle cx="1007" cy="637" r="15" fill="#4A3A82"/>
  <circle cx="1087" cy="637" r="15" fill="#4A3A82"/>
  <circle cx="1167" cy="637" r="15" fill="#4A3A82"/>

  <rect width="1600" height="900" filter="url(#grain-ai-overviews-optimization-protecting-clicks)" opacity="0.52"/>
</svg>