<svg width="1600" height="900" viewBox="0 0 1600 900" fill="none" xmlns="http://www.w3.org/2000/svg">
  <defs>
    <linearGradient id="bgMetrics" x1="120" y1="90" x2="1480" y2="810" gradientUnits="userSpaceOnUse">
      <stop stop-color="#EEF6FF"/>
      <stop offset="1" stop-color="#C7DCF5"/>
    </linearGradient>
    <filter id="grainMetrics" x="-20%" y="-20%" width="140%" height="140%">
      <feTurbulence type="fractalNoise" baseFrequency="0.8" numOctaves="2" stitchTiles="stitch"/>
      <feColorMatrix type="saturate" values="0"/>
      <feComponentTransfer>
        <feFuncA type="table" tableValues="0 0.06"/>
      </feComponentTransfer>
    </filter>
  </defs>

  <rect width="1600" height="900" fill="url(#bgMetrics)"/>
  <rect x="190" y="120" width="1220" height="660" rx="46" fill="#F8FCFF" stroke="#C7D9EE" stroke-width="8"/>

  <rect x="290" y="220" width="540" height="500" rx="32" fill="#D7E7F8"/>
  <rect x="360" y="560" width="80" height="110" rx="18" fill="#7EA7D4"/>
  <rect x="470" y="500" width="80" height="170" rx="18" fill="#6F99C9"/>
  <rect x="580" y="430" width="80" height="240" rx="18" fill="#5F8CBE"/>
  <rect x="690" y="360" width="80" height="310" rx="18" fill="#4E7EB3"/>

  <rect x="900" y="220" width="410" height="230" rx="28" fill="#CFE1F4"/>
  <path d="M960 390L1040 320L1110 350L1200 270L1250 305" stroke="#4F7FB5" stroke-width="10" stroke-linecap="round" stroke-linejoin="round"/>
  <circle cx="1040" cy="320" r="14" fill="#4F7FB5"/>
  <circle cx="1110" cy="350" r="14" fill="#4F7FB5"/>
  <circle cx="1200" cy="270" r="14" fill="#4F7FB5"/>

  <rect x="900" y="490" width="410" height="230" rx="28" fill="#DCEAF8"/>
  <circle cx="1000" cy="605" r="56" fill="#84A9CF"/>
  <circle cx="1120" cy="605" r="56" fill="#6A95C4"/>
  <circle cx="1240" cy="605" r="56" fill="#4F7FB5"/>

  <rect width="1600" height="900" filter="url(#grainMetrics)" opacity="0.5"/>
</svg>
