<svg width="1600" height="900" viewBox="0 0 1600 900" fill="none" xmlns="http://www.w3.org/2000/svg">
  <defs>
    <linearGradient id="bgAsync" x1="120" y1="80" x2="1480" y2="820" gradientUnits="userSpaceOnUse">
      <stop stop-color="#EFF4FF"/>
      <stop offset="1" stop-color="#C9D8FA"/>
    </linearGradient>
    <linearGradient id="deskAsync" x1="220" y1="220" x2="1380" y2="760" gradientUnits="userSpaceOnUse">
      <stop stop-color="#FDFEFF"/>
      <stop offset="1" stop-color="#E7EDFA"/>
    </linearGradient>
    <filter id="grainAsync" x="-20%" y="-20%" width="140%" height="140%">
      <feTurbulence type="fractalNoise" baseFrequency="0.78" numOctaves="2" stitchTiles="stitch"/>
      <feColorMatrix type="saturate" values="0"/>
      <feComponentTransfer>
        <feFuncA type="table" tableValues="0 0.06"/>
      </feComponentTransfer>
    </filter>
  </defs>

  <rect width="1600" height="900" fill="url(#bgAsync)"/>
  <rect x="180" y="130" width="1240" height="640" rx="46" fill="url(#deskAsync)" stroke="#CAD6F1" stroke-width="8"/>

  <rect x="280" y="250" width="300" height="300" rx="30" fill="#D9E3F8"/>
  <circle cx="430" cy="340" r="64" fill="#879FCE"/>
  <rect x="355" y="415" width="150" height="94" rx="24" fill="#9EB3DC"/>

  <rect x="650" y="230" width="300" height="340" rx="30" fill="#D3E1FB"/>
  <circle cx="800" cy="330" r="64" fill="#7A96C9"/>
  <rect x="725" y="406" width="150" height="108" rx="24" fill="#94AEDB"/>

  <rect x="1020" y="250" width="300" height="300" rx="30" fill="#DCE7FC"/>
  <circle cx="1170" cy="340" r="64" fill="#8AA4D2"/>
  <rect x="1095" y="415" width="150" height="94" rx="24" fill="#A3B7DF"/>

  <path d="M510 340H650" stroke="#6F89BD" stroke-width="10" stroke-linecap="round"/>
  <path d="M950 340H1020" stroke="#6F89BD" stroke-width="10" stroke-linecap="round"/>
  <path d="M800 170V230" stroke="#6F89BD" stroke-width="10" stroke-linecap="round"/>
  <circle cx="800" cy="170" r="24" fill="#6F89BD"/>

  <rect x="430" y="620" width="740" height="84" rx="42" fill="#B8C9EA"/>
  <rect x="470" y="646" width="230" height="18" rx="9" fill="#EAF0FA"/>
  <rect x="730" y="646" width="180" height="18" rx="9" fill="#EAF0FA"/>
  <rect x="940" y="646" width="190" height="18" rx="9" fill="#EAF0FA"/>

  <rect width="1600" height="900" filter="url(#grainAsync)" opacity="0.52"/>
</svg>
