<svg width="1600" height="900" viewBox="0 0 1600 900" fill="none" xmlns="http://www.w3.org/2000/svg">
  <defs>
    <linearGradient id="bgTravel" x1="120" y1="90" x2="1490" y2="820" gradientUnits="userSpaceOnUse">
      <stop stop-color="#EEF5FE"/>
      <stop offset="1" stop-color="#C9DEF3"/>
    </linearGradient>
    <filter id="grainTravel" x="-20%" y="-20%" width="140%" height="140%">
      <feTurbulence type="fractalNoise" baseFrequency="0.78" numOctaves="2" stitchTiles="stitch"/>
      <feColorMatrix type="saturate" values="0"/>
      <feComponentTransfer>
        <feFuncA type="table" tableValues="0 0.06"/>
      </feComponentTransfer>
    </filter>
  </defs>

  <rect width="1600" height="900" fill="url(#bgTravel)"/>
  <rect x="212" y="152" width="1176" height="596" rx="38" fill="#F9FCFF" stroke="#C9DBEB" stroke-width="8"/>

  <path d="M320 288C476 224 596 370 768 322C914 280 1052 194 1276 258" stroke="#779EC1" stroke-width="18" stroke-linecap="round" stroke-dasharray="14 24"/>
  <path d="M948 244L1036 228L986 300L948 244Z" fill="#2D6192"/>

  <circle cx="464" cy="564" r="92" fill="#F4C560"/>
  <circle cx="566" cy="564" r="92" fill="#F6D78D"/>
  <circle cx="514" cy="502" r="92" fill="#E9AA2A"/>

  <rect x="820" y="428" width="412" height="224" rx="24" fill="#DDEBFA" stroke="#86A9C9" stroke-width="6"/>
  <path d="M860 482H1188" stroke="#85A7C8" stroke-width="8"/>
  <path d="M860 544H1188" stroke="#85A7C8" stroke-width="8"/>
  <path d="M860 606H1128" stroke="#85A7C8" stroke-width="8"/>

  <rect x="336" y="250" width="176" height="126" rx="16" fill="#CCDEF1"/>
  <rect width="1600" height="900" filter="url(#grainTravel)" opacity="0.48"/>
</svg>
