<svg width="1600" height="900" viewBox="0 0 1600 900" fill="none" xmlns="http://www.w3.org/2000/svg">
  <defs>
    <linearGradient id="bg-core-web-vitals-search-visibility-fixes" x1="90" y1="80" x2="1510" y2="830" gradientUnits="userSpaceOnUse">
      <stop stop-color="#EAF2FF"/>
      <stop offset="1" stop-color="#C9D9F9"/>
    </linearGradient>
    <filter id="grain-core-web-vitals-search-visibility-fixes" x="-20%" y="-20%" width="140%" height="140%">
      <feTurbulence type="fractalNoise" baseFrequency="0.81" numOctaves="2" stitchTiles="stitch"/>
      <feColorMatrix type="saturate" values="0"/>
      <feComponentTransfer>
        <feFuncA type="table" tableValues="0 0.06"/>
      </feComponentTransfer>
    </filter>
  </defs>

  <rect width="1600" height="900" fill="url(#bg-core-web-vitals-search-visibility-fixes)"/>
  <rect x="170" y="120" width="1260" height="660" rx="46" fill="#FCFEFF" stroke="#CAD8EB" stroke-width="8"/>

  <rect x="246" y="256" width="460" height="420" rx="32" fill="#6C8BC7" opacity="0.24"/>
  <rect x="786" y="296" width="520" height="72" rx="16" fill="#6C8BC7" opacity="0.52"/>
  <rect x="786" y="398" width="420" height="28" rx="14" fill="#6C8BC7" opacity="0.45"/>
  <rect x="786" y="446" width="360" height="28" rx="14" fill="#6C8BC7" opacity="0.45"/>

  <circle cx="426" cy="406" r="72" fill="#2E4F8C" opacity="0.52"/>
  <rect x="366" y="516" width="260" height="22" rx="11" fill="#2E4F8C" opacity="0.5"/>
  <rect x="366" y="556" width="220" height="22" rx="11" fill="#2E4F8C" opacity="0.5"/>

  <path d="M1006 636H1166" stroke="#2E4F8C" stroke-width="10" stroke-linecap="round"/>
  <circle cx="1006" cy="636" r="15" fill="#2E4F8C"/>
  <circle cx="1086" cy="636" r="15" fill="#2E4F8C"/>
  <circle cx="1166" cy="636" r="15" fill="#2E4F8C"/>

  <rect width="1600" height="900" filter="url(#grain-core-web-vitals-search-visibility-fixes)" opacity="0.52"/>
</svg>