<svg width="1600" height="900" viewBox="0 0 1600 900" fill="none" xmlns="http://www.w3.org/2000/svg">
  <defs>
    <linearGradient id="bgDeclutter" x1="100" y1="100" x2="1480" y2="820" gradientUnits="userSpaceOnUse">
      <stop stop-color="#F4F6F7"/>
      <stop offset="1" stop-color="#D8DEE4"/>
    </linearGradient>
    <filter id="grainDeclutter" x="-20%" y="-20%" width="140%" height="140%">
      <feTurbulence type="fractalNoise" baseFrequency="0.8" numOctaves="2" stitchTiles="stitch"/>
      <feColorMatrix type="saturate" values="0"/>
      <feComponentTransfer>
        <feFuncA type="table" tableValues="0 0.055"/>
      </feComponentTransfer>
    </filter>
  </defs>

  <rect width="1600" height="900" fill="url(#bgDeclutter)"/>
  <rect x="150" y="120" width="1300" height="660" rx="36" fill="#FCFCFC" stroke="#DDE1E5" stroke-width="8"/>

  <rect x="256" y="482" width="1088" height="198" rx="20" fill="#E8ECEF"/>
  <rect x="288" y="522" width="284" height="130" rx="14" fill="#D6DDE2"/>
  <rect x="612" y="522" width="284" height="130" rx="14" fill="#C9D4DC"/>
  <rect x="936" y="522" width="284" height="130" rx="14" fill="#BECEDA"/>

  <rect x="300" y="220" width="420" height="224" rx="18" fill="#F7F8F9" stroke="#D0D6DC" stroke-width="6"/>
  <rect x="362" y="272" width="112" height="112" rx="10" fill="#CCD4DC"/>
  <rect x="504" y="276" width="182" height="18" rx="9" fill="#CBD2D9"/>
  <rect x="504" y="312" width="142" height="18" rx="9" fill="#CBD2D9"/>

  <path d="M980 272L1016 308L1082 232" stroke="#5B8D68" stroke-width="16" stroke-linecap="round" stroke-linejoin="round"/>
  <path d="M980 344L1016 380L1082 304" stroke="#5B8D68" stroke-width="16" stroke-linecap="round" stroke-linejoin="round"/>
  <path d="M980 416L1016 452L1082 376" stroke="#5B8D68" stroke-width="16" stroke-linecap="round" stroke-linejoin="round"/>

  <rect width="1600" height="900" filter="url(#grainDeclutter)" opacity="0.5"/>
</svg>
