<svg width="1600" height="900" viewBox="0 0 1600 900" fill="none" xmlns="http://www.w3.org/2000/svg">
  <defs>
    <linearGradient id="bgDetox" x1="120" y1="120" x2="1480" y2="800" gradientUnits="userSpaceOnUse">
      <stop stop-color="#ECF8F5"/>
      <stop offset="1" stop-color="#BFDCD2"/>
    </linearGradient>
    <linearGradient id="phoneDetox" x1="520" y1="140" x2="1080" y2="760" gradientUnits="userSpaceOnUse">
      <stop stop-color="#1A3238"/>
      <stop offset="1" stop-color="#0F2227"/>
    </linearGradient>
    <filter id="grainDetox" x="-20%" y="-20%" width="140%" height="140%">
      <feTurbulence type="fractalNoise" baseFrequency="0.8" numOctaves="2" stitchTiles="stitch"/>
      <feColorMatrix type="saturate" values="0"/>
      <feComponentTransfer>
        <feFuncA type="table" tableValues="0 0.065"/>
      </feComponentTransfer>
    </filter>
  </defs>

  <rect width="1600" height="900" fill="url(#bgDetox)"/>
  <path d="M410 740C510 700 576 618 606 510C530 534 432 612 392 694C378 722 388 753 410 740Z" fill="#5BA583"/>
  <path d="M1188 728C1086 688 1022 606 992 498C1068 520 1168 598 1208 680C1222 708 1210 740 1188 728Z" fill="#5BA583"/>

  <rect x="520" y="140" width="560" height="620" rx="52" fill="url(#phoneDetox)"/>
  <rect x="560" y="206" width="480" height="486" rx="28" fill="#E2F4EF"/>
  <circle cx="800" cy="452" r="126" stroke="#2C6555" stroke-width="24"/>
  <path d="M734 452H866" stroke="#2C6555" stroke-width="20" stroke-linecap="round"/>
  <path d="M1060 272L1140 192" stroke="#2A6657" stroke-width="14" stroke-linecap="round"/>
  <circle cx="800" cy="714" r="20" fill="#46626B"/>

  <rect x="560" y="206" width="480" height="486" rx="28" fill="white" opacity="0.18"/>
  <rect width="1600" height="900" filter="url(#grainDetox)" opacity="0.5"/>
</svg>
