<svg width="1600" height="900" viewBox="0 0 1600 900" fill="none" xmlns="http://www.w3.org/2000/svg">
  <defs>
    <linearGradient id="bg-eeat-content-systems-long-term-trust" x1="90" y1="80" x2="1510" y2="830" gradientUnits="userSpaceOnUse">
      <stop stop-color="#F1EEFF"/>
      <stop offset="1" stop-color="#D8CCF4"/>
    </linearGradient>
    <filter id="grain-eeat-content-systems-long-term-trust" x="-20%" y="-20%" width="140%" height="140%">
      <feTurbulence type="fractalNoise" baseFrequency="0.81" numOctaves="2" stitchTiles="stitch"/>
      <feColorMatrix type="saturate" values="0"/>
      <feComponentTransfer>
        <feFuncA type="table" tableValues="0 0.06"/>
      </feComponentTransfer>
    </filter>
  </defs>

  <rect width="1600" height="900" fill="url(#bg-eeat-content-systems-long-term-trust)"/>
  <rect x="170" y="120" width="1260" height="660" rx="46" fill="#FCFEFF" stroke="#CAD8EB" stroke-width="8"/>

  <rect x="213" y="233" width="460" height="420" rx="32" fill="#8F7EC8" opacity="0.24"/>
  <rect x="753" y="273" width="520" height="72" rx="16" fill="#8F7EC8" opacity="0.52"/>
  <rect x="753" y="375" width="420" height="28" rx="14" fill="#8F7EC8" opacity="0.45"/>
  <rect x="753" y="423" width="360" height="28" rx="14" fill="#8F7EC8" opacity="0.45"/>

  <circle cx="393" cy="383" r="72" fill="#4A3A82" opacity="0.52"/>
  <rect x="333" y="493" width="260" height="22" rx="11" fill="#4A3A82" opacity="0.5"/>
  <rect x="333" y="533" width="220" height="22" rx="11" fill="#4A3A82" opacity="0.5"/>

  <path d="M973 603H1133" stroke="#4A3A82" stroke-width="10" stroke-linecap="round"/>
  <circle cx="973" cy="603" r="15" fill="#4A3A82"/>
  <circle cx="1053" cy="603" r="15" fill="#4A3A82"/>
  <circle cx="1133" cy="603" r="15" fill="#4A3A82"/>

  <rect width="1600" height="900" filter="url(#grain-eeat-content-systems-long-term-trust)" opacity="0.52"/>
</svg>