<svg width="1600" height="900" viewBox="0 0 1600 900" fill="none" xmlns="http://www.w3.org/2000/svg">
  <defs>
    <linearGradient id="bgData" x1="110" y1="90" x2="1490" y2="810" gradientUnits="userSpaceOnUse">
      <stop stop-color="#EDF7F8"/>
      <stop offset="1" stop-color="#C5DFE2"/>
    </linearGradient>
    <filter id="grainData" x="-20%" y="-20%" width="140%" height="140%">
      <feTurbulence type="fractalNoise" baseFrequency="0.8" numOctaves="2" stitchTiles="stitch"/>
      <feColorMatrix type="saturate" values="0"/>
      <feComponentTransfer>
        <feFuncA type="table" tableValues="0 0.06"/>
      </feComponentTransfer>
    </filter>
  </defs>

  <rect width="1600" height="900" fill="url(#bgData)"/>
  <rect x="200" y="120" width="1200" height="660" rx="46" fill="#F8FEFF" stroke="#C7DEE0" stroke-width="8"/>

  <rect x="300" y="220" width="540" height="500" rx="32" fill="#D8EBED"/>
  <rect x="370" y="290" width="400" height="28" rx="14" fill="#8DAFB4"/>
  <rect x="370" y="340" width="330" height="28" rx="14" fill="#8DAFB4"/>
  <rect x="370" y="390" width="370" height="28" rx="14" fill="#8DAFB4"/>
  <rect x="370" y="440" width="290" height="28" rx="14" fill="#8DAFB4"/>

  <circle cx="1080" cy="350" r="160" fill="#BDD9DD"/>
  <path d="M1080 255L1175 300V412C1175 490 1134 560 1080 595C1026 560 985 490 985 412V300L1080 255Z" fill="#65959D"/>
  <rect x="1035" y="365" width="90" height="85" rx="18" fill="#EAF5F7"/>
  <rect x="1054" y="334" width="52" height="46" rx="20" fill="#EAF5F7"/>

  <rect x="900" y="575" width="360" height="95" rx="22" fill="#CDE3E6"/>
  <rect x="960" y="612" width="240" height="20" rx="10" fill="#7DA5AB"/>

  <rect width="1600" height="900" filter="url(#grainData)" opacity="0.5"/>
</svg>
