<svg width="1600" height="900" viewBox="0 0 1600 900" fill="none" xmlns="http://www.w3.org/2000/svg">
  <defs>
    <linearGradient id="bgPricing" x1="120" y1="90" x2="1480" y2="810" gradientUnits="userSpaceOnUse">
      <stop stop-color="#FFF3EA"/>
      <stop offset="1" stop-color="#F4D3BE"/>
    </linearGradient>
    <filter id="grainPricing" x="-20%" y="-20%" width="140%" height="140%">
      <feTurbulence type="fractalNoise" baseFrequency="0.79" numOctaves="2" stitchTiles="stitch"/>
      <feColorMatrix type="saturate" values="0"/>
      <feComponentTransfer>
        <feFuncA type="table" tableValues="0 0.06"/>
      </feComponentTransfer>
    </filter>
  </defs>

  <rect width="1600" height="900" fill="url(#bgPricing)"/>
  <rect x="200" y="120" width="1200" height="660" rx="46" fill="#FFF9F4" stroke="#EBCBB8" stroke-width="8"/>

  <rect x="300" y="220" width="460" height="500" rx="30" fill="#F3DFD0"/>
  <rect x="360" y="300" width="340" height="30" rx="15" fill="#C89172"/>
  <rect x="360" y="360" width="240" height="30" rx="15" fill="#C89172"/>
  <rect x="360" y="420" width="280" height="30" rx="15" fill="#C89172"/>
  <rect x="360" y="480" width="200" height="30" rx="15" fill="#C89172"/>

  <circle cx="1030" cy="370" r="170" fill="#E8C1A6"/>
  <circle cx="1030" cy="370" r="115" fill="#D99F7C"/>
  <circle cx="1030" cy="370" r="62" fill="#FFF3EA"/>
  <path d="M1030 300V440" stroke="#AD6844" stroke-width="12" stroke-linecap="round"/>
  <path d="M960 370H1100" stroke="#AD6844" stroke-width="12" stroke-linecap="round"/>

  <rect x="860" y="590" width="340" height="90" rx="22" fill="#D9A887"/>
  <rect x="930" y="625" width="200" height="20" rx="10" fill="#FDEBDE"/>

  <rect width="1600" height="900" filter="url(#grainPricing)" opacity="0.5"/>
</svg>
