<svg width="1600" height="900" viewBox="0 0 1600 900" fill="none" xmlns="http://www.w3.org/2000/svg">
  <defs>
    <linearGradient id="bgGreen" x1="100" y1="80" x2="1490" y2="820" gradientUnits="userSpaceOnUse">
      <stop stop-color="#EAF7E8"/>
      <stop offset="1" stop-color="#BEDCBC"/>
    </linearGradient>
    <filter id="grainGreen" x="-20%" y="-20%" width="140%" height="140%">
      <feTurbulence type="fractalNoise" baseFrequency="0.76" numOctaves="2" stitchTiles="stitch"/>
      <feColorMatrix type="saturate" values="0"/>
      <feComponentTransfer>
        <feFuncA type="table" tableValues="0 0.055"/>
      </feComponentTransfer>
    </filter>
    <radialGradient id="sunGreen" cx="0" cy="0" r="1" gradientUnits="userSpaceOnUse" gradientTransform="translate(1128 300) rotate(90) scale(170)">
      <stop stop-color="#F8E78D"/>
      <stop offset="1" stop-color="#F8E78D" stop-opacity="0"/>
    </radialGradient>
  </defs>

  <rect width="1600" height="900" fill="url(#bgGreen)"/>
  <circle cx="800" cy="450" r="296" fill="#D3EBD1"/>

  <path d="M800 220C914 280 936 424 844 528C760 614 640 626 558 554C650 554 732 510 782 430C832 350 832 282 800 220Z" fill="#4F9A5E"/>
  <path d="M800 220C740 322 760 424 844 528C944 516 1024 454 1044 352C1064 262 984 190 904 180C862 174 828 188 800 220Z" fill="#74B97F"/>

  <circle cx="1128" cy="300" r="118" fill="#F5E27C"/>
  <circle cx="1128" cy="300" r="170" fill="url(#sunGreen)"/>
  <path d="M1128 198V154" stroke="#D5B848" stroke-width="12" stroke-linecap="round"/>
  <path d="M1128 446V402" stroke="#D5B848" stroke-width="12" stroke-linecap="round"/>
  <path d="M1228 300H1272" stroke="#D5B848" stroke-width="12" stroke-linecap="round"/>
  <path d="M984 300H1028" stroke="#D5B848" stroke-width="12" stroke-linecap="round"/>

  <circle cx="472" cy="612" r="120" fill="#5F9F68"/>
  <circle cx="472" cy="612" r="62" fill="#E5F2E4"/>
  <path d="M472 492V538" stroke="#E5F2E4" stroke-width="10"/>
  <path d="M472 686V732" stroke="#E5F2E4" stroke-width="10"/>
  <path d="M352 612H398" stroke="#E5F2E4" stroke-width="10"/>
  <path d="M546 612H592" stroke="#E5F2E4" stroke-width="10"/>

  <rect width="1600" height="900" filter="url(#grainGreen)" opacity="0.48"/>
</svg>
