<svg width="1600" height="900" viewBox="0 0 1600 900" fill="none" xmlns="http://www.w3.org/2000/svg">
  <defs>
    <linearGradient id="bgOffice" x1="120" y1="90" x2="1480" y2="810" gradientUnits="userSpaceOnUse">
      <stop stop-color="#F1F7F3"/>
      <stop offset="1" stop-color="#CFE1D2"/>
    </linearGradient>
    <filter id="grainOffice" x="-20%" y="-20%" width="140%" height="140%">
      <feTurbulence type="fractalNoise" baseFrequency="0.78" numOctaves="2" stitchTiles="stitch"/>
      <feColorMatrix type="saturate" values="0"/>
      <feComponentTransfer>
        <feFuncA type="table" tableValues="0 0.06"/>
      </feComponentTransfer>
    </filter>
  </defs>

  <rect width="1600" height="900" fill="url(#bgOffice)"/>
  <rect x="200" y="120" width="1200" height="660" rx="46" fill="#FBFFFC" stroke="#C9DCCF" stroke-width="8"/>

  <rect x="260" y="590" width="1080" height="120" rx="26" fill="#D6E6D9"/>
  <rect x="320" y="260" width="760" height="300" rx="32" fill="#E3EEE6"/>
  <rect x="350" y="300" width="340" height="220" rx="22" fill="#C8DCCF"/>
  <rect x="730" y="320" width="300" height="170" rx="22" fill="#BFD6C6"/>

  <circle cx="1180" cy="300" r="85" fill="#A6C4AE"/>
  <rect x="1132" y="348" width="96" height="160" rx="28" fill="#E7F1EA"/>
  <rect x="1155" y="250" width="50" height="70" rx="20" fill="#D6E8DA"/>

  <rect x="840" y="620" width="200" height="26" rx="13" fill="#8CAD99"/>
  <rect x="1060" y="620" width="170" height="26" rx="13" fill="#8CAD99"/>
  <rect x="400" y="620" width="260" height="26" rx="13" fill="#8CAD99"/>

  <rect width="1600" height="900" filter="url(#grainOffice)" opacity="0.5"/>
</svg>
