<svg width="1600" height="900" viewBox="0 0 1600 900" fill="none" xmlns="http://www.w3.org/2000/svg">
  <defs>
    <linearGradient id="bg-international-seo-multi-language-workflows" x1="90" y1="80" x2="1510" y2="830" gradientUnits="userSpaceOnUse">
      <stop stop-color="#EAF8F7"/>
      <stop offset="1" stop-color="#C9E7E4"/>
    </linearGradient>
    <filter id="grain-international-seo-multi-language-workflows" x="-20%" y="-20%" width="140%" height="140%">
      <feTurbulence type="fractalNoise" baseFrequency="0.81" numOctaves="2" stitchTiles="stitch"/>
      <feColorMatrix type="saturate" values="0"/>
      <feComponentTransfer>
        <feFuncA type="table" tableValues="0 0.06"/>
      </feComponentTransfer>
    </filter>
  </defs>

  <rect width="1600" height="900" fill="url(#bg-international-seo-multi-language-workflows)"/>
  <rect x="170" y="120" width="1260" height="660" rx="46" fill="#FCFEFF" stroke="#CAD8EB" stroke-width="8"/>

  <rect x="274" y="234" width="460" height="420" rx="32" fill="#5F9F99" opacity="0.24"/>
  <rect x="814" y="274" width="520" height="72" rx="16" fill="#5F9F99" opacity="0.52"/>
  <rect x="814" y="376" width="420" height="28" rx="14" fill="#5F9F99" opacity="0.45"/>
  <rect x="814" y="424" width="360" height="28" rx="14" fill="#5F9F99" opacity="0.45"/>

  <circle cx="454" cy="384" r="72" fill="#2D5F5B" opacity="0.52"/>
  <rect x="394" y="494" width="260" height="22" rx="11" fill="#2D5F5B" opacity="0.5"/>
  <rect x="394" y="534" width="220" height="22" rx="11" fill="#2D5F5B" opacity="0.5"/>

  <path d="M1034 664H1194" stroke="#2D5F5B" stroke-width="10" stroke-linecap="round"/>
  <circle cx="1034" cy="664" r="15" fill="#2D5F5B"/>
  <circle cx="1114" cy="664" r="15" fill="#2D5F5B"/>
  <circle cx="1194" cy="664" r="15" fill="#2D5F5B"/>

  <rect width="1600" height="900" filter="url(#grain-international-seo-multi-language-workflows)" opacity="0.52"/>
</svg>