<svg width="1600" height="900" viewBox="0 0 1600 900" fill="none" xmlns="http://www.w3.org/2000/svg">
  <defs>
    <linearGradient id="bgKb" x1="100" y1="80" x2="1500" y2="820" gradientUnits="userSpaceOnUse">
      <stop stop-color="#F3EFE6"/>
      <stop offset="1" stop-color="#DCCFB9"/>
    </linearGradient>
    <linearGradient id="paperKb" x1="240" y1="180" x2="1360" y2="760" gradientUnits="userSpaceOnUse">
      <stop stop-color="#FFFCF6"/>
      <stop offset="1" stop-color="#EFE6D7"/>
    </linearGradient>
    <filter id="grainKb" x="-20%" y="-20%" width="140%" height="140%">
      <feTurbulence type="fractalNoise" baseFrequency="0.83" numOctaves="2" stitchTiles="stitch"/>
      <feColorMatrix type="saturate" values="0"/>
      <feComponentTransfer>
        <feFuncA type="table" tableValues="0 0.07"/>
      </feComponentTransfer>
    </filter>
  </defs>

  <rect width="1600" height="900" fill="url(#bgKb)"/>
  <rect x="210" y="130" width="1180" height="640" rx="44" fill="url(#paperKb)" stroke="#D9CDB8" stroke-width="8"/>

  <rect x="300" y="220" width="380" height="460" rx="28" fill="#E8DDC8"/>
  <rect x="340" y="270" width="300" height="22" rx="11" fill="#C4B69B"/>
  <rect x="340" y="316" width="250" height="22" rx="11" fill="#C4B69B"/>
  <rect x="340" y="362" width="280" height="22" rx="11" fill="#C4B69B"/>
  <rect x="340" y="408" width="220" height="22" rx="11" fill="#C4B69B"/>

  <rect x="750" y="230" width="540" height="440" rx="30" fill="#F4EEDF"/>
  <rect x="820" y="300" width="400" height="28" rx="14" fill="#CBBDA5"/>
  <rect x="820" y="350" width="340" height="28" rx="14" fill="#CBBDA5"/>
  <rect x="820" y="400" width="380" height="28" rx="14" fill="#CBBDA5"/>
  <rect x="820" y="450" width="310" height="28" rx="14" fill="#CBBDA5"/>

  <circle cx="1120" cy="200" r="60" fill="#B79D74"/>
  <path d="M1120 172V228" stroke="#FFF8ED" stroke-width="12" stroke-linecap="round"/>
  <path d="M1092 200H1148" stroke="#FFF8ED" stroke-width="12" stroke-linecap="round"/>

  <rect x="760" y="560" width="250" height="74" rx="18" fill="#D7C7AC"/>
  <rect x="1030" y="560" width="240" height="74" rx="18" fill="#CEBCA0"/>

  <rect width="1600" height="900" filter="url(#grainKb)" opacity="0.54"/>
</svg>
