<svg width="1600" height="900" viewBox="0 0 1600 900" fill="none" xmlns="http://www.w3.org/2000/svg">
  <defs>
    <linearGradient id="bg-local-seo-multi-location-systems" x1="90" y1="80" x2="1510" y2="830" gradientUnits="userSpaceOnUse">
      <stop stop-color="#EAF8F7"/>
      <stop offset="1" stop-color="#C9E7E4"/>
    </linearGradient>
    <filter id="grain-local-seo-multi-location-systems" x="-20%" y="-20%" width="140%" height="140%">
      <feTurbulence type="fractalNoise" baseFrequency="0.81" numOctaves="2" stitchTiles="stitch"/>
      <feColorMatrix type="saturate" values="0"/>
      <feComponentTransfer>
        <feFuncA type="table" tableValues="0 0.06"/>
      </feComponentTransfer>
    </filter>
  </defs>

  <rect width="1600" height="900" fill="url(#bg-local-seo-multi-location-systems)"/>
  <rect x="170" y="120" width="1260" height="660" rx="46" fill="#FCFEFF" stroke="#CAD8EB" stroke-width="8"/>

  <rect x="238" y="258" width="460" height="420" rx="32" fill="#5F9F99" opacity="0.24"/>
  <rect x="778" y="298" width="520" height="72" rx="16" fill="#5F9F99" opacity="0.52"/>
  <rect x="778" y="400" width="420" height="28" rx="14" fill="#5F9F99" opacity="0.45"/>
  <rect x="778" y="448" width="360" height="28" rx="14" fill="#5F9F99" opacity="0.45"/>

  <circle cx="418" cy="408" r="72" fill="#2D5F5B" opacity="0.52"/>
  <rect x="358" y="518" width="260" height="22" rx="11" fill="#2D5F5B" opacity="0.5"/>
  <rect x="358" y="558" width="220" height="22" rx="11" fill="#2D5F5B" opacity="0.5"/>

  <path d="M998 628H1158" stroke="#2D5F5B" stroke-width="10" stroke-linecap="round"/>
  <circle cx="998" cy="628" r="15" fill="#2D5F5B"/>
  <circle cx="1078" cy="628" r="15" fill="#2D5F5B"/>
  <circle cx="1158" cy="628" r="15" fill="#2D5F5B"/>

  <rect width="1600" height="900" filter="url(#grain-local-seo-multi-location-systems)" opacity="0.52"/>
</svg>