<svg width="1600" height="900" viewBox="0 0 1600 900" fill="none" xmlns="http://www.w3.org/2000/svg">
  <defs>
    <linearGradient id="bgMinimal" x1="120" y1="80" x2="1480" y2="840" gradientUnits="userSpaceOnUse">
      <stop stop-color="#F5F8F2"/>
      <stop offset="1" stop-color="#DCE5D5"/>
    </linearGradient>
    <linearGradient id="cardMinimal" x1="200" y1="130" x2="1400" y2="770" gradientUnits="userSpaceOnUse">
      <stop stop-color="#FDFEFD"/>
      <stop offset="1" stop-color="#EEF3EC"/>
    </linearGradient>
    <radialGradient id="lightMinimal" cx="0" cy="0" r="1" gradientUnits="userSpaceOnUse" gradientTransform="translate(1220 220) rotate(90) scale(280)">
      <stop stop-color="#F9FBE7"/>
      <stop offset="1" stop-color="#F9FBE7" stop-opacity="0"/>
    </radialGradient>
    <filter id="grainMinimal" x="-20%" y="-20%" width="140%" height="140%">
      <feTurbulence type="fractalNoise" baseFrequency="0.78" numOctaves="2" stitchTiles="stitch"/>
      <feColorMatrix type="saturate" values="0"/>
      <feComponentTransfer>
        <feFuncA type="table" tableValues="0 0.06"/>
      </feComponentTransfer>
    </filter>
  </defs>

  <rect width="1600" height="900" fill="url(#bgMinimal)"/>
  <rect x="170" y="120" width="1260" height="660" rx="44" fill="url(#cardMinimal)" stroke="#D5DED1" stroke-width="8"/>

  <rect x="260" y="490" width="520" height="170" rx="26" fill="#CDD8C7"/>
  <rect x="285" y="520" width="240" height="18" rx="9" fill="#BAC5B5"/>
  <rect x="285" y="555" width="185" height="18" rx="9" fill="#BAC5B5"/>
  <rect x="840" y="220" width="370" height="430" rx="28" fill="#E4ECE0"/>
  <rect x="920" y="340" width="210" height="220" rx="18" fill="#C8D5C2"/>
  <circle cx="1220" cy="560" r="78" fill="#B8C9B0"/>

  <path d="M1202 448V300C1202 252 1241 214 1289 214" stroke="#A2B39B" stroke-width="16" stroke-linecap="round"/>
  <rect x="280" y="250" width="280" height="140" rx="22" fill="#F7FAF5" stroke="#D2DBCE" stroke-width="6"/>
  <rect x="300" y="275" width="120" height="16" rx="8" fill="#D7E0D3"/>
  <rect x="300" y="305" width="180" height="16" rx="8" fill="#D7E0D3"/>

  <rect x="860" y="150" width="260" height="64" rx="32" fill="#DAE5D5"/>
  <rect width="1600" height="900" fill="url(#lightMinimal)"/>
  <rect width="1600" height="900" filter="url(#grainMinimal)" opacity="0.5"/>
</svg>
