<svg width="1600" height="900" viewBox="0 0 1600 900" fill="none" xmlns="http://www.w3.org/2000/svg">
  <defs>
    <linearGradient id="bgCopy" x1="120" y1="90" x2="1480" y2="810" gradientUnits="userSpaceOnUse">
      <stop stop-color="#F6F0FF"/>
      <stop offset="1" stop-color="#D6C8EF"/>
    </linearGradient>
    <filter id="grainCopy" x="-20%" y="-20%" width="140%" height="140%">
      <feTurbulence type="fractalNoise" baseFrequency="0.8" numOctaves="2" stitchTiles="stitch"/>
      <feColorMatrix type="saturate" values="0"/>
      <feComponentTransfer>
        <feFuncA type="table" tableValues="0 0.06"/>
      </feComponentTransfer>
    </filter>
  </defs>

  <rect width="1600" height="900" fill="url(#bgCopy)"/>
  <rect x="210" y="120" width="1180" height="660" rx="44" fill="#FEFCFF" stroke="#D8CCEC" stroke-width="8"/>

  <rect x="280" y="210" width="460" height="500" rx="30" fill="#E8E0F6"/>
  <rect x="350" y="280" width="320" height="22" rx="11" fill="#A996CB"/>
  <rect x="350" y="322" width="280" height="22" rx="11" fill="#A996CB"/>
  <rect x="350" y="364" width="300" height="22" rx="11" fill="#A996CB"/>
  <rect x="350" y="406" width="240" height="22" rx="11" fill="#A996CB"/>

  <path d="M840 270C840 220 880 180 930 180H1220C1270 180 1310 220 1310 270V560C1310 610 1270 650 1220 650H930C880 650 840 610 840 560V270Z" fill="#DCCFF0"/>
  <circle cx="980" cy="360" r="54" fill="#8D79B5"/>
  <path d="M960 358L977 376L1014 338" stroke="#F7F1FF" stroke-width="12" stroke-linecap="round" stroke-linejoin="round"/>
  <rect x="1050" y="325" width="190" height="24" rx="12" fill="#AD9ACF"/>
  <rect x="1050" y="367" width="140" height="24" rx="12" fill="#AD9ACF"/>
  <rect x="900" y="470" width="340" height="86" rx="20" fill="#B8A7D8"/>

  <rect width="1600" height="900" filter="url(#grainCopy)" opacity="0.5"/>
</svg>
