<svg width="1600" height="900" viewBox="0 0 1600 900" fill="none" xmlns="http://www.w3.org/2000/svg">
  <defs>
    <linearGradient id="bg-programmatic-seo-quality-controls-scale" x1="90" y1="80" x2="1510" y2="830" gradientUnits="userSpaceOnUse">
      <stop stop-color="#EAF2FF"/>
      <stop offset="1" stop-color="#C9D9F9"/>
    </linearGradient>
    <filter id="grain-programmatic-seo-quality-controls-scale" x="-20%" y="-20%" width="140%" height="140%">
      <feTurbulence type="fractalNoise" baseFrequency="0.81" numOctaves="2" stitchTiles="stitch"/>
      <feColorMatrix type="saturate" values="0"/>
      <feComponentTransfer>
        <feFuncA type="table" tableValues="0 0.06"/>
      </feComponentTransfer>
    </filter>
  </defs>

  <rect width="1600" height="900" fill="url(#bg-programmatic-seo-quality-controls-scale)"/>
  <rect x="170" y="120" width="1260" height="660" rx="46" fill="#FCFEFF" stroke="#CAD8EB" stroke-width="8"/>

  <rect x="260" y="240" width="460" height="420" rx="32" fill="#6C8BC7" opacity="0.24"/>
  <rect x="800" y="280" width="520" height="72" rx="16" fill="#6C8BC7" opacity="0.52"/>
  <rect x="800" y="382" width="420" height="28" rx="14" fill="#6C8BC7" opacity="0.45"/>
  <rect x="800" y="430" width="360" height="28" rx="14" fill="#6C8BC7" opacity="0.45"/>

  <circle cx="440" cy="390" r="72" fill="#2E4F8C" opacity="0.52"/>
  <rect x="380" y="500" width="260" height="22" rx="11" fill="#2E4F8C" opacity="0.5"/>
  <rect x="380" y="540" width="220" height="22" rx="11" fill="#2E4F8C" opacity="0.5"/>

  <path d="M1020 650H1180" stroke="#2E4F8C" stroke-width="10" stroke-linecap="round"/>
  <circle cx="1020" cy="650" r="15" fill="#2E4F8C"/>
  <circle cx="1100" cy="650" r="15" fill="#2E4F8C"/>
  <circle cx="1180" cy="650" r="15" fill="#2E4F8C"/>

  <rect width="1600" height="900" filter="url(#grain-programmatic-seo-quality-controls-scale)" opacity="0.52"/>
</svg>