<svg width="1600" height="900" viewBox="0 0 1600 900" fill="none" xmlns="http://www.w3.org/2000/svg">
  <defs>
    <linearGradient id="bgSecure" x1="110" y1="90" x2="1490" y2="810" gradientUnits="userSpaceOnUse">
      <stop stop-color="#E9F1FB"/>
      <stop offset="1" stop-color="#B9CBE5"/>
    </linearGradient>
    <filter id="grainSecure" x="-20%" y="-20%" width="140%" height="140%">
      <feTurbulence type="fractalNoise" baseFrequency="0.79" numOctaves="2" stitchTiles="stitch"/>
      <feColorMatrix type="saturate" values="0"/>
      <feComponentTransfer>
        <feFuncA type="table" tableValues="0 0.06"/>
      </feComponentTransfer>
    </filter>
  </defs>

  <rect width="1600" height="900" fill="url(#bgSecure)"/>
  <rect x="220" y="120" width="1160" height="660" rx="44" fill="#F7FBFF" stroke="#C3D2E6" stroke-width="8"/>

  <rect x="300" y="250" width="560" height="360" rx="30" fill="#D5E1F0"/>
  <rect x="360" y="320" width="200" height="16" rx="8" fill="#89A2C1"/>
  <rect x="360" y="355" width="300" height="16" rx="8" fill="#89A2C1"/>
  <rect x="360" y="390" width="240" height="16" rx="8" fill="#89A2C1"/>

  <rect x="930" y="230" width="320" height="420" rx="30" fill="#CBDCED"/>
  <path d="M1090 300L1168 340V428C1168 488 1136 542 1090 570C1044 542 1012 488 1012 428V340L1090 300Z" fill="#6D8FB6"/>
  <path d="M1054 432L1080 458L1130 402" stroke="#EAF1FA" stroke-width="16" stroke-linecap="round" stroke-linejoin="round"/>

  <circle cx="520" cy="640" r="70" fill="#7E9BBC"/>
  <rect x="476" y="606" width="88" height="96" rx="24" fill="#E9F0FA"/>
  <rect x="496" y="578" width="48" height="44" rx="20" fill="#E9F0FA"/>

  <path d="M680 640H930" stroke="#7D99BA" stroke-width="10" stroke-linecap="round"/>
  <circle cx="680" cy="640" r="16" fill="#7D99BA"/>
  <circle cx="930" cy="640" r="16" fill="#7D99BA"/>

  <rect width="1600" height="900" filter="url(#grainSecure)" opacity="0.5"/>
</svg>
