<svg width="1600" height="900" viewBox="0 0 1600 900" fill="none" xmlns="http://www.w3.org/2000/svg">
  <defs>
    <linearGradient id="bgRetroMeet" x1="100" y1="90" x2="1500" y2="810" gradientUnits="userSpaceOnUse">
      <stop stop-color="#FBEDE7"/>
      <stop offset="1" stop-color="#EBC8B7"/>
    </linearGradient>
    <filter id="grainRetroMeet" x="-20%" y="-20%" width="140%" height="140%">
      <feTurbulence type="fractalNoise" baseFrequency="0.81" numOctaves="2" stitchTiles="stitch"/>
      <feColorMatrix type="saturate" values="0"/>
      <feComponentTransfer>
        <feFuncA type="table" tableValues="0 0.06"/>
      </feComponentTransfer>
    </filter>
  </defs>

  <rect width="1600" height="900" fill="url(#bgRetroMeet)"/>
  <rect x="190" y="120" width="1220" height="660" rx="46" fill="#FFF7F3" stroke="#E4C6B8" stroke-width="8"/>

  <rect x="300" y="240" width="1000" height="300" rx="30" fill="#F1DDD4"/>
  <circle cx="430" cy="390" r="72" fill="#D09174"/>
  <circle cx="650" cy="390" r="72" fill="#C88264"/>
  <circle cx="870" cy="390" r="72" fill="#BD7657"/>
  <circle cx="1090" cy="390" r="72" fill="#B46C4E"/>

  <rect x="350" y="580" width="900" height="130" rx="24" fill="#E8CCBE"/>
  <rect x="420" y="620" width="220" height="18" rx="9" fill="#C28E77"/>
  <rect x="670" y="620" width="180" height="18" rx="9" fill="#C28E77"/>
  <rect x="880" y="620" width="300" height="18" rx="9" fill="#C28E77"/>

  <path d="M502 390H578" stroke="#FFF4EF" stroke-width="12" stroke-linecap="round"/>
  <path d="M722 390H798" stroke="#FFF4EF" stroke-width="12" stroke-linecap="round"/>
  <path d="M942 390H1018" stroke="#FFF4EF" stroke-width="12" stroke-linecap="round"/>

  <rect width="1600" height="900" filter="url(#grainRetroMeet)" opacity="0.5"/>
</svg>
