<svg width="1600" height="900" viewBox="0 0 1600 900" fill="none" xmlns="http://www.w3.org/2000/svg">
  <defs>
    <linearGradient id="bg-search-intent-modeling-conversion-content" x1="90" y1="80" x2="1510" y2="830" gradientUnits="userSpaceOnUse">
      <stop stop-color="#FFF3EA"/>
      <stop offset="1" stop-color="#F2D7C4"/>
    </linearGradient>
    <filter id="grain-search-intent-modeling-conversion-content" x="-20%" y="-20%" width="140%" height="140%">
      <feTurbulence type="fractalNoise" baseFrequency="0.81" numOctaves="2" stitchTiles="stitch"/>
      <feColorMatrix type="saturate" values="0"/>
      <feComponentTransfer>
        <feFuncA type="table" tableValues="0 0.06"/>
      </feComponentTransfer>
    </filter>
  </defs>

  <rect width="1600" height="900" fill="url(#bg-search-intent-modeling-conversion-content)"/>
  <rect x="170" y="120" width="1260" height="660" rx="46" fill="#FCFEFF" stroke="#CAD8EB" stroke-width="8"/>

  <rect x="212" y="232" width="460" height="420" rx="32" fill="#C68863" opacity="0.24"/>
  <rect x="752" y="272" width="520" height="72" rx="16" fill="#C68863" opacity="0.52"/>
  <rect x="752" y="374" width="420" height="28" rx="14" fill="#C68863" opacity="0.45"/>
  <rect x="752" y="422" width="360" height="28" rx="14" fill="#C68863" opacity="0.45"/>

  <circle cx="392" cy="382" r="72" fill="#7F4A2C" opacity="0.52"/>
  <rect x="332" y="492" width="260" height="22" rx="11" fill="#7F4A2C" opacity="0.5"/>
  <rect x="332" y="532" width="220" height="22" rx="11" fill="#7F4A2C" opacity="0.5"/>

  <path d="M972 602H1132" stroke="#7F4A2C" stroke-width="10" stroke-linecap="round"/>
  <circle cx="972" cy="602" r="15" fill="#7F4A2C"/>
  <circle cx="1052" cy="602" r="15" fill="#7F4A2C"/>
  <circle cx="1132" cy="602" r="15" fill="#7F4A2C"/>

  <rect width="1600" height="900" filter="url(#grain-search-intent-modeling-conversion-content)" opacity="0.52"/>
</svg>