<svg width="1600" height="900" viewBox="0 0 1600 900" fill="none" xmlns="http://www.w3.org/2000/svg">
  <defs>
    <linearGradient id="bg-semantic-seo-entity-models-content-teams" x1="90" y1="80" x2="1510" y2="830" gradientUnits="userSpaceOnUse">
      <stop stop-color="#EAF2FF"/>
      <stop offset="1" stop-color="#C9D9F9"/>
    </linearGradient>
    <filter id="grain-semantic-seo-entity-models-content-teams" x="-20%" y="-20%" width="140%" height="140%">
      <feTurbulence type="fractalNoise" baseFrequency="0.81" numOctaves="2" stitchTiles="stitch"/>
      <feColorMatrix type="saturate" values="0"/>
      <feComponentTransfer>
        <feFuncA type="table" tableValues="0 0.06"/>
      </feComponentTransfer>
    </filter>
  </defs>

  <rect width="1600" height="900" fill="url(#bg-semantic-seo-entity-models-content-teams)"/>
  <rect x="170" y="120" width="1260" height="660" rx="46" fill="#FCFEFF" stroke="#CAD8EB" stroke-width="8"/>

  <rect x="268" y="228" width="460" height="420" rx="32" fill="#6C8BC7" opacity="0.24"/>
  <rect x="808" y="268" width="520" height="72" rx="16" fill="#6C8BC7" opacity="0.52"/>
  <rect x="808" y="370" width="420" height="28" rx="14" fill="#6C8BC7" opacity="0.45"/>
  <rect x="808" y="418" width="360" height="28" rx="14" fill="#6C8BC7" opacity="0.45"/>

  <circle cx="448" cy="378" r="72" fill="#2E4F8C" opacity="0.52"/>
  <rect x="388" y="488" width="260" height="22" rx="11" fill="#2E4F8C" opacity="0.5"/>
  <rect x="388" y="528" width="220" height="22" rx="11" fill="#2E4F8C" opacity="0.5"/>

  <path d="M1028 658H1188" stroke="#2E4F8C" stroke-width="10" stroke-linecap="round"/>
  <circle cx="1028" cy="658" r="15" fill="#2E4F8C"/>
  <circle cx="1108" cy="658" r="15" fill="#2E4F8C"/>
  <circle cx="1188" cy="658" r="15" fill="#2E4F8C"/>

  <rect width="1600" height="900" filter="url(#grain-semantic-seo-entity-models-content-teams)" opacity="0.52"/>
</svg>