<svg width="1600" height="900" viewBox="0 0 1600 900" fill="none" xmlns="http://www.w3.org/2000/svg">
  <defs>
    <linearGradient id="bg-variable-fonts-speed-personality-web-design" x1="90" y1="80" x2="1510" y2="830" gradientUnits="userSpaceOnUse">
      <stop stop-color="#EAF1FF"/>
      <stop offset="1" stop-color="#C8D8FB"/>
    </linearGradient>
    <filter id="grain-variable-fonts-speed-personality-web-design" x="-20%" y="-20%" width="140%" height="140%">
      <feTurbulence type="fractalNoise" baseFrequency="0.82" numOctaves="2" stitchTiles="stitch"/>
      <feColorMatrix type="saturate" values="0"/>
      <feComponentTransfer>
        <feFuncA type="table" tableValues="0 0.06"/>
      </feComponentTransfer>
    </filter>
  </defs>

  <rect width="1600" height="900" fill="url(#bg-variable-fonts-speed-personality-web-design)"/>
  <rect x="170" y="120" width="1260" height="660" rx="44" fill="#FDFEFF" stroke="#C8D4E6" stroke-width="8"/>

  <circle cx="474" cy="324" r="120" fill="#7A95D1" opacity="0.32"/>
  <rect x="274" y="230" width="994" height="534" rx="34" fill="#F7FAFD" stroke="#D0DAE9" stroke-width="6"/>

  <rect x="334" y="300" width="360" height="210" rx="22" fill="#7A95D1" opacity="0.25"/>
  <rect x="744" y="300" width="420" height="42" rx="21" fill="#7A95D1" opacity="0.6"/>
  <rect x="744" y="370" width="300" height="30" rx="15" fill="#7A95D1" opacity="0.48"/>
  <rect x="744" y="420" width="350" height="30" rx="15" fill="#7A95D1" opacity="0.44"/>

  <rect x="344" y="560" width="760" height="96" rx="22" fill="#3E5D9E" opacity="0.17"/>
  <rect x="384" y="596" width="220" height="20" rx="10" fill="#3E5D9E" opacity="0.45"/>
  <rect x="634" y="596" width="170" height="20" rx="10" fill="#3E5D9E" opacity="0.45"/>
  <rect x="834" y="596" width="220" height="20" rx="10" fill="#3E5D9E" opacity="0.45"/>

  <rect width="1600" height="900" filter="url(#grain-variable-fonts-speed-personality-web-design)" opacity="0.52"/>
</svg>