<svg width="1600" height="900" viewBox="0 0 1600 900" fill="none" xmlns="http://www.w3.org/2000/svg">
  <defs>
    <linearGradient id="bg-video-seo-discoverability-retention-frameworks" x1="90" y1="80" x2="1510" y2="830" gradientUnits="userSpaceOnUse">
      <stop stop-color="#EAF8F7"/>
      <stop offset="1" stop-color="#C9E7E4"/>
    </linearGradient>
    <filter id="grain-video-seo-discoverability-retention-frameworks" x="-20%" y="-20%" width="140%" height="140%">
      <feTurbulence type="fractalNoise" baseFrequency="0.81" numOctaves="2" stitchTiles="stitch"/>
      <feColorMatrix type="saturate" values="0"/>
      <feComponentTransfer>
        <feFuncA type="table" tableValues="0 0.06"/>
      </feComponentTransfer>
    </filter>
  </defs>

  <rect width="1600" height="900" fill="url(#bg-video-seo-discoverability-retention-frameworks)"/>
  <rect x="170" y="120" width="1260" height="660" rx="46" fill="#FCFEFF" stroke="#CAD8EB" stroke-width="8"/>

  <rect x="214" y="214" width="460" height="420" rx="32" fill="#5F9F99" opacity="0.24"/>
  <rect x="754" y="254" width="520" height="72" rx="16" fill="#5F9F99" opacity="0.52"/>
  <rect x="754" y="356" width="420" height="28" rx="14" fill="#5F9F99" opacity="0.45"/>
  <rect x="754" y="404" width="360" height="28" rx="14" fill="#5F9F99" opacity="0.45"/>

  <circle cx="394" cy="364" r="72" fill="#2D5F5B" opacity="0.52"/>
  <rect x="334" y="474" width="260" height="22" rx="11" fill="#2D5F5B" opacity="0.5"/>
  <rect x="334" y="514" width="220" height="22" rx="11" fill="#2D5F5B" opacity="0.5"/>

  <path d="M974 604H1134" stroke="#2D5F5B" stroke-width="10" stroke-linecap="round"/>
  <circle cx="974" cy="604" r="15" fill="#2D5F5B"/>
  <circle cx="1054" cy="604" r="15" fill="#2D5F5B"/>
  <circle cx="1134" cy="604" r="15" fill="#2D5F5B"/>

  <rect width="1600" height="900" filter="url(#grain-video-seo-discoverability-retention-frameworks)" opacity="0.52"/>
</svg>